<?xml version="1.0" encoding="utf-8"?>
<!-- Generator: Adobe Illustrator 26.0.3, SVG Export Plug-In . SVG Version: 6.00 Build 0)  -->
<svg version="1.1" id="Ebene_1" xmlns="http://www.w3.org/2000/svg" xmlns:xlink="http://www.w3.org/1999/xlink" x="0px" y="0px"
	 viewBox="0 0 256 256" style="enable-background:new 0 0 256 256;" xml:space="preserve">
<style type="text/css">
	.st0{fill:#A03F84;}
	.st1{fill:#DBA7D2;}
	.st2{fill:#FFFFFF;}
	.st3{fill:#28BEC6;}
</style>
<g>
	<g>
		<g>
			<g>
				<g>
					<g>
						<g>
							<rect class="st0" width="256" height="256"/>
						</g>
					</g>
				</g>
			</g>
		</g>
		<path class="st1" d="M188.5,210v2.2c0,8.2-6.7,14.8-14.8,14.8H63.4c-8.2,0-14.8-6.7-14.8-14.8V66.4c0-8.2,6.7-14.8,14.8-14.8H66
			v138c0,11.5,9.3,20.8,20.4,20.8h102V210z"/>
		<g>
			<path class="st2" d="M159.2,28.6H86.4l0,0c-8.2,0-14.8,6.7-14.8,14.8v145.8l0,0c0,8.2,6.7,14.8,14.8,14.8h110.2
				c8.2,0,14.8-6.7,14.8-14.8v-108L159.2,28.6z"/>
		</g>
		<polygon class="st1" points="212.2,81.6 159.2,28.6 159.2,81.6 		"/>
	</g>
	<g>
		<path class="st3" d="M131.6,159.6h-0.7c0.1,0,0.2,0.1,0.3,0.1C131.4,159.7,131.5,159.7,131.6,159.6z"/>
	</g>
	<path class="st0" d="M141.5,185.4L141.5,185.4c-7.1,0-12.9-5.8-12.9-12.9v0c0-7.1,5.8-12.9,12.9-12.9h0c7.1,0,12.9,5.8,12.9,12.9v0
		C154.4,179.6,148.6,185.4,141.5,185.4z"/>
	<path class="st0" d="M95.5,139.3L95.5,139.3c0-7.1,5.8-12.9,12.9-12.9h0c7.1,0,12.9,5.8,12.9,12.9v0c0,7.1-5.8,12.9-12.9,12.9h0
		C101.2,152.2,95.5,146.4,95.5,139.3z"/>
	<path class="st0" d="M161.9,106.1L161.9,106.1c0-7.1,5.8-12.9,12.9-12.9h0c7.1,0,12.9,5.8,12.9,12.9v0c0,7.1-5.8,12.9-12.9,12.9h0
		C167.7,118.9,161.9,113.2,161.9,106.1z"/>
	
		<rect x="138.9" y="83" transform="matrix(-1.836970e-16 1 -1 -1.836970e-16 280.858 -2.2261)" class="st0" width="5.3" height="112.7"/>
	
		<rect x="138.9" y="49.7" transform="matrix(-1.836970e-16 1 -1 -1.836970e-16 247.6241 -35.46)" class="st0" width="5.3" height="112.7"/>
	
		<rect x="138.9" y="116.2" transform="matrix(-1.836970e-16 1 -1 -1.836970e-16 314.0919 31.0078)" class="st0" width="5.3" height="112.7"/>
</g>
</svg>
