<svg xmlns="http://www.w3.org/2000/svg" viewBox="0 0 64 64"><defs><style>.cls-2{fill:#131313}</style></defs><rect id="BG-Color" width="64" height="64" rx="4" ry="4" style="fill:#da6ec4"/><g id="Ebene_1" data-name="Ebene 1"><path d="M50 30H27.65c-.826-2.327-3.044-4-5.65-4s-4.824 1.673-5.65 4H14a2 2 0 0 0 0 4h2.35c.826 2.327 3.044 4 5.65 4s4.824-1.673 5.65-4H50a2 2 0 0 0 0-4m-28 4c-1.103 0-2-.897-2-2s.897-2 2-2 2 .897 2 2-.897 2-2 2M50 42H33.65c-.826-2.327-3.044-4-5.65-4s-4.824 1.673-5.65 4H14a2 2 0 0 0 0 4h8.35c.826 2.327 3.044 4 5.65 4s4.824-1.673 5.65-4H50a2 2 0 0 0 0-4m-22 4c-1.103 0-2-.897-2-2s.897-2 2-2 2 .897 2 2-.897 2-2 2M14 22h20.35c.826 2.327 3.044 4 5.65 4s4.824-1.673 5.65-4H50a2 2 0 0 0 0-4h-4.35c-.826-2.327-3.044-4-5.65-4s-4.824 1.673-5.65 4H14a2 2 0 0 0 0 4m26-4c1.103 0 2 .897 2 2s-.897 2-2 2-2-.897-2-2 .897-2 2-2" class="cls-2"/></g></svg>